/* XPM */
static char *cf7de77d6f7e4166f029bf58c1731afcOEfb0eoFonbKz1b1[] = {
/* columns rows colors chars-per-pixel */
"30 30 228 2 ",
"   c black",
".  c #000100",
"X  c #010101",
"o  c #020000",
"O  c #030100",
"+  c #020200",
"@  c #020201",
"#  c #030301",
"$  c #040000",
"%  c #060000",
"&  c #060100",
"*  c #040301",
"=  c #070201",
"-  c #030401",
";  c #040401",
":  c #040402",
">  c #070602",
",  c #080000",
"<  c #0A0000",
"1  c #090302",
"2  c #0D0000",
"3  c #0D0100",
"4  c #080402",
"5  c #080602",
"6  c #0F0904",
"7  c #0C0B05",
"8  c #100302",
"9  c #190101",
"0  c #1A0202",
"q  c #1C0101",
"w  c #1F0402",
"e  c #100804",
"r  c #170B07",
"t  c #180B06",
"y  c #151308",
"u  c #171208",
"i  c #1C190B",
"p  c #1E190B",
"a  c #1D180C",
"s  c #240301",
"d  c #200402",
"f  c #2D0300",
"g  c #210804",
"h  c #240A05",
"j  c #2C0B05",
"k  c #2E0D06",
"l  c #340101",
"z  c #330B06",
"x  c #350C06",
"c  c #3C0B06",
"v  c #241308",
"b  c #2D1409",
"n  c #361008",
"m  c #430703",
"M  c #540403",
"N  c #540605",
"B  c #5B0504",
"V  c #610202",
"C  c #4D2A13",
"Z  c #4F2B13",
"A  c #4D2B14",
"S  c #4F2B14",
"D  c #4F2C14",
"F  c #512B14",
"G  c #522C15",
"H  c #592C14",
"J  c #682312",
"K  c #6C2310",
"L  c #BE0A08",
"P  c #AF140B",
"I  c #AA160D",
"U  c #AA1A0F",
"Y  c #B3150E",
"T  c #B9130D",
"R  c #BF120C",
"E  c #BC150F",
"W  c #BD1A0F",
"Q  c #B11B11",
"!  c #BA1B13",
"~  c #BF1E11",
"^  c #AC2113",
"/  c #AF2012",
"(  c #BE2114",
")  c #A13C26",
"_  c #A13C27",
"`  c #C90707",
"'  c #C30F09",
"]  c #C30D0A",
"[  c #C90B09",
"{  c #CA0B08",
"}  c #C90B0A",
"|  c #CA0A0A",
" . c #C80C08",
".. c #C90C08",
"X. c #CA0C09",
"o. c #C90F09",
"O. c #C90C0A",
"+. c #C90D0A",
"@. c #CA0C0A",
"#. c #CA0C0B",
"$. c #C80F0B",
"%. c #C90F0B",
"&. c #CA0E0A",
"*. c #CB0E0B",
"=. c #C0110C",
"-. c #C2110C",
";. c #C3130D",
":. c #C6120C",
">. c #C2140D",
",. c #C9100B",
"<. c #C8120B",
"1. c #C9120B",
"2. c #CB110C",
"3. c #C8120C",
"4. c #C9120C",
"5. c #C8120D",
"6. c #C9120D",
"7. c #CB130C",
"8. c #C9140C",
"9. c #C9140D",
"0. c #CB140C",
"q. c #CA140D",
"w. c #CA150D",
"e. c #CA160D",
"r. c #C9140F",
"t. c #CB140E",
"y. c #C8160E",
"u. c #C8170E",
"i. c #C9160F",
"p. c #CA160E",
"a. c #CA170E",
"s. c #CB160F",
"d. c #CA170F",
"f. c #C1190F",
"g. c #C3180F",
"h. c #C8180F",
"j. c #CA180E",
"k. c #CB190F",
"l. c #C11710",
"z. c #C41512",
"x. c #C11810",
"c. c #C41910",
"v. c #C71810",
"b. c #C41F13",
"n. c #C61E12",
"m. c #C81810",
"M. c #C91B11",
"N. c #CB1A10",
"B. c #CA1A11",
"V. c #CB1A11",
"C. c #CA1B11",
"Z. c #C91B12",
"A. c #CB1B12",
"S. c #CB1C10",
"D. c #CA1C11",
"F. c #CB1C11",
"G. c #CB1D11",
"H. c #CA1E11",
"J. c #CB1E11",
"K. c #C91D12",
"L. c #CA1D12",
"P. c #CB1D12",
"I. c #CB1E12",
"U. c #CB1F12",
"Y. c #C22013",
"T. c #C72013",
"R. c #C62113",
"E. c #C02614",
"W. c #C02516",
"Q. c #C62616",
"!. c #C92013",
"~. c #CB2013",
"^. c #CB2113",
"/. c #CB2213",
"(. c #C92014",
"). c #C92114",
"_. c #CA2014",
"`. c #CB2114",
"'. c #C82215",
"]. c #CA2215",
"[. c #CC2215",
"{. c #CC2515",
"}. c #CC2817",
"|. c #C7291A",
" X c #CD2B18",
".X c #CC2E1A",
"XX c #C3301C",
"oX c #8F4F32",
"OX c #875031",
"+X c #805434",
"@X c #8B5737",
"#X c #8D5535",
"$X c #875B38",
"%X c #875B39",
"&X c #885B39",
"*X c #B2BC53",
"=X c #B7C054",
"-X c #B6C155",
";X c #B8C254",
":X c #BAC556",
">X c #BBC756",
",X c #BDC858",
"<X c #BFC959",
"1X c #C0CB59",
"2X c #C1CE59",
"3X c #C2CE5A",
"4X c #C4CF5B",
"5X c #C4D05B",
"6X c #C4D15B",
"7X c #C6D15B",
"8X c #C5D15C",
"9X c #C6D05C",
"0X c #C5D25C",
"qX c #C6D25C",
"wX c #C7D25C",
"eX c #C6D35C",
"rX c #C6D25D",
"tX c #C7D35D",
"yX c #C6D45D",
"uX c #C7D45D",
"iX c #C8D25C",
"pX c #C8D35C",
"aX c #C8D45C",
"sX c #C8D45D",
"dX c #CAD561",
"fX c #CAD663",
"gX c #CCD768",
"hX c #CFDA72",
/* pixels */
"gXgXgXgXgXgXgXgXgXgXgXgXgXgXgXgXgXgXgXgXgXgXgXgXgXgXgXgXgXhX",
"sXsXsXsXsXsXsXsXsXsXsXsXsXsXsXsXsXsXsXsXsXsXsXsXsXsXsXsXsXpX",
"sXsXsXsXsXsXsXsXsXsXsXsXsXsXsXsXsXsXsXsXsXsXsXsXsXsXsXsXsXfX",
"sXsXsXsXsXsXsXsXsXsXsXsXsXsXsXsXsXsXsXsXsXsXsXsXsXsXsXsXsXgX",
"sXsXsXsXsXsXsXsXsXsXsXsXsXsXsXsXsXsXsXsXsXsXsXsXsXsXsXsXsXgX",
"sXsXsXsXsXsXsXsXsXsXsXaXtXsXpXsXsXsXsXsXsXsXsXsXsXsXsXsXsXgX",
"sXsXsXsXsXsXsXsXsXsXsX@ @ * ; tXsXsXsXsXsXsXsXsXsXsXsXsXsXgX",
"sXsXsXsXsXsXsXsX7XyX7X@ A A 5 3XyXsXsXsXsXsXsXsXsXsXsXsXsXgX",
"sXsXtXtX@ @ * q 9 f w ; G +X7 >XtXtXyXsXsXsXsXsXsXsXsXsXsXgX",
"sXsXtX@ @ &X#X}.w.-.b.E.XXOXt y :XtXsXsXsXsXsXsXsXsXsXsXsXgX",
"sXsXtX@ $X$X@Xw.w.9 d g.].Y./ j a :XtXpXyXyXsXsXsXsXsXsXsXgX",
"sXsXtX@ $XoX5.1.h.Y.=.n.G.w.;.^ k a *X1X7X7XpXsXsXsXsXsXsXgX",
"sXsXsX@ &XA.5.s.5.| X.h.w.w.U.x.I c n z e 3 2 < sXpXpXsXsXgX",
"sXsXtX@ &X].h.5.z.] W x.w.A.A.U.=.T ( R |.]..Xs * pXsXsXsXgX",
"sXsXtX@ @ @ @ * 7 t h U f./.U.U.U.w.T.U.A.o.o.U.2 sXsXsXsXgX",
"sXsXsXtXsXsXtX7X3X=Xa x Y A.A.w.m.A.U._ _ U.#.{.2 sXsXsXsXgX",
"sXsXsXsXsXsXsXsXsXtX*Xb Q m.-.1.5.1.o.U.A.w.h.G.< sXsXsXsXgX",
"sXsXsXsXsXsXsXsXsXsX,Xv Y ;.|  .o.] -.s.| ! E w.2 pXsXsXsXgX",
"sXsXsXsXsXsXsXsXsXsX3Xu m z.o.o.1.w.;.m.G.G.5.o.l * sXsXsXgX",
"sXsXsXsXsXsXsXsXsXyXtX<Xd E.o.o.m.U.U.G.V.X.2.{ h.< sXtXsXgX",
"sXsXsXsXsXsXsXsXsXsXsX5X5 K Y.|.M M B V [.2.` V.K @ @ tXsXgX",
"sXsXsXsXsXsXsXsXsXsXsXtX* F G * @ tX7X@ @ *  XH D D @ tXsXgX",
"sXsXsXsXsXsXsXsXsXsXsXpX@ C A @ pXsXsXsXtX@ @ F A D @ sXsXgX",
"sXsXsXsXsXsXsXsXsXsXsXpX@ A C @ sXsXsXsXpXpX@ A C @ @ sXsXgX",
"sXsXsXsXsXsXsXsXsXsXsXsX@ C A @ sXsXsXsXsXsX@ C A @ tXtXsXgX",
"sXsXsXsXsXsXsXsXsXsXsXsX@ @ @ @ sXsXsXsXsXsX@ @ @ @ sXtXsXgX",
"sXsXsXsXsXsXsXsXsXsXsXsXsXsXsXsXsXsXsXsXsXsXsXsXsXsXsXsXsXgX",
"sXsXsXsXsXsXsXsXsXsXsXsXsXsXsXsXsXsXsXsXsXsXsXsXsXsXsXsXsXgX",
"sXsXsXsXsXsXsXsXsXsXsXsXsXsXsXsXsXsXsXsXsXsXsXsXsXsXsXsXsXfX",
"sXsXsXsXsXsXsXsXsXsXsXsXsXsXsXsXsXsXsXsXsXsXsXsXsXsXsXsXsXsX"
};
