/* XPM */
static char *dfccb1a6536d4e65fdb8d3238f2c98d9eAhFIEfoNqNTIVxX[] = {
/* columns rows colors chars-per-pixel */
"30 30 10 1 ",
"  c black",
". c #020201",
"X c #4F2C14",
"o c #885B39",
"O c #D78244",
"+ c #C8D45D",
"@ c #CAD561",
"# c #CAD663",
"$ c #CCD768",
"% c #CFDA72",
/* pixels */
"$$$$$$$$$$$$$$$$$$$$$$$$$$$$$%",
"++++++++++++++++++++++++++++++",
"+++++++++++++++++++++++++++++@",
"+++++++++++++++++++++++++++++$",
"+++++++++++++++++++++++++++++$",
"+++++++++++++++++++++++++++++$",
"+++++++++++    ++++++++++++++$",
"+++++++++++ XX ++++++++++++++$",
"++++        Xo ++++++++++++++$",
"+++  ooOOOOOOo  +++++++++++++$",
"+++ oooOO  OOOO  ++++++++++++$",
"+++ ooOOOOOOOOOO  +++++++++++$",
"+++ oOOOOOOOOOOOO       +++++$",
"+++ oOOOOOOOOOOOOOOOOOO  ++++$",
"+++        OOOOOOOOOOOOO ++++$",
"++++++++++  OOOOOOOooOOO ++++$",
"+++++++++++ OOOOOOOOOOOO ++++$",
"+++++++++++ OOOOOooOOooO ++++$",
"+++++++++++  OOOOOOOOOOO  +++$",
"++++++++++++ OOOOOOOOOOOO +++$",
"++++++++++++ XOO    OOOOX  ++$",
"++++++++++++ XX  ++   OXXX ++$",
"++++++++++++ XX +++++  XXX ++$",
"++++++++++++ XX ++++++ XX  ++$",
"++++++++++++ XX ++++++ XX +++$",
"++++++++++++    ++++++    +++$",
"+++++++++++++++++++++++++++++$",
"+++++++++++++++++++++++++++++$",
"+++++++++++++++++++++++++++++#",
"++++++++++++++++++++++++++++++"
};
