/* XPM */
static char *e26ea074b2f14a439ca824f0d7a7a402uOr5UTbId2HM4jPt[] = {
/* columns rows colors chars-per-pixel */
"24 24 10 1 ",
"  c #181425",
". c #52333F",
"X c #8F4D57",
"o c #BD6A62",
"O c #C8D45D",
"+ c #C8D45E",
"@ c #CAD664",
"# c #CBD767",
"$ c #CCD768",
"% c #CFDA72",
/* pixels */
"%$$$$$$$$$$$$$$$$$$$$$$%",
"OOOOOOOOOOOOOOOOOOOOOOOO",
"#OOOOOOOOOOOOOOOOOOOOOO#",
"$OOOOOOOOOOOOOOOOOOOOOO$",
"$OOOOOOOO.    .OOOOOOOO$",
"$OOOOOO. XXXXXX .OOOOOO$",
"$OOOOO XXooooooXX OOOOO$",
"$OOOO.XooXXXXXXooX.OOOO$",
"$OOOO XoXXooooXXoX OOOO$",
"$OOOO XooXXXXXXooX OOOO$",
"$OOOO  XXooooooXX  OOOO$",
"$OOOO .  XXXXXX  . OOOO$",
"$OOO .X...    ...X. OOO$",
"$OO XoXX..X..X..XXoX OO$",
"$OO .XX...oXXo...XX. OO$",
"$OO ...  .XooX.  ... OO$",
"$OOO   OO XooX OO   OOO$",
"$OOOOOOOO .XX. OOOOOOOO$",
"$OOOOOOOOO .. OOOOOOOOO$",
"$OOOOOOOOOO  OOOOOOOOOO$",
"$OOOOOOOOOOOOOOOOOOOOOO$",
"#OOOOOOOOOOOOOOOOOOOOOO@",
"OOOOOOOOOOOOOOOOOOOOOOOO",
"%#$$$$$$$$$$$$$$$$$$$$$%"
};
