/* XPM */
static char *a74849a1d44142d494a7f1274a2393bbdoRVE25pEBnpnWGd[] = {
/* columns rows colors chars-per-pixel */
"24 24 10 1 ",
"  c #181425",
". c #404973",
"X c #C8D45D",
"o c #C8D45E",
"O c #CAD664",
"+ c #CBD767",
"@ c #CCD768",
"# c #CFDA72",
"$ c #686F99",
"% c #A3A7C2",
/* pixels */
"#@@@@@@@@@@@@@@@@@@@@@@#",
"XXXXXXXXXXXXXXXXXXXXXXXX",
"+XXXXXXXXXXXXXXXXXXXXXX+",
"@XXXXXXXXXXXXXXXXXXXXXX@",
"@XXXXXXXXXXXXXXXXXXXXXX@",
"@XXXXXX $%%%%%$ XXXXXXX@",
"@XXXXX $%%%%%%%$ XXXXXX@",
"@XXXX $%%%%%%%%%$ XXXXX@",
"@XXXX$%%%%%%%%%%%$  XXX@",
"@XXXX$%%%%%%%%%%%$  XXX@",
"@XXXX.$%%%%%%%%%$.  XXX@",
"@XXXX..$%%%%%%%$..  XXX@",
"@XXXX...$%%%%%$...  XXX@",
"@XXXX....$$$$$....  XXX@",
"@XXXX....$$$$$....  XXX@",
"@XXXX ...$$$$$... XXXXX@",
"@XXXXX ..$$$$$.. XXXXXX@",
"@XXXXXX .$$$$$. XXXXXXX@",
"@XXXXXXX       XXXXXXXX@",
"@XXXXXXX       XXXXXXXX@",
"@XXXXXXXXXXXXXXXXXXXXXX@",
"+XXXXXXXXXXXXXXXXXXXXXXO",
"XXXXXXXXXXXXXXXXXXXXXXXX",
"#+@@@@@@@@@@@@@@@@@@@@@#"
};
