/* XPM */
static char *c0bd4a70694b4fe9c896b593d60c77db0lxs0IFcQOTXnNsM[] = {
/* columns rows colors chars-per-pixel */
"32 32 188 2 ",
"   c #00000D",
".  c #00000F",
"X  c #000010",
"o  c #000013",
"O  c #010013",
"+  c #020014",
"@  c #4F5235",
"#  c #555A34",
"$  c #565B34",
"%  c #5A5D36",
"&  c #5F633A",
"*  c #616537",
"=  c #626538",
"-  c #61653D",
";  c #656B38",
":  c #676B38",
">  c #646A3A",
",  c #656B3B",
"<  c #686D39",
"1  c #696D39",
"2  c #696E39",
"3  c #686C3A",
"4  c #72793E",
"5  c #151A47",
"6  c #171A4A",
"7  c #171A4D",
"8  c #1B1C49",
"9  c #191C4A",
"0  c #1A1E4D",
"q  c #202342",
"w  c #202344",
"e  c #212444",
"r  c #222644",
"t  c #232746",
"y  c #242647",
"u  c #2D2E4E",
"i  c #2E3052",
"p  c #343454",
"a  c #353654",
"s  c #353655",
"d  c #363655",
"f  c #303363",
"g  c #343564",
"h  c #373865",
"j  c #35366A",
"k  c #373B6B",
"l  c #37386C",
"z  c #2B3974",
"x  c #2D3C76",
"c  c #2E3D79",
"v  c #2F3E78",
"b  c #354371",
"n  c #354372",
"m  c #344472",
"M  c #364472",
"N  c #374573",
"B  c #384674",
"V  c #394776",
"C  c #394977",
"Z  c #394978",
"A  c #384A78",
"S  c #3C4A79",
"D  c #3D4B7B",
"F  c #3A4C7A",
"G  c #3C4C7B",
"H  c #3F4D7A",
"J  c #3E4C7B",
"K  c #737A40",
"L  c #727942",
"P  c #747B43",
"I  c #414F7C",
"U  c #434F7D",
"Y  c #43517E",
"T  c #45517F",
"R  c #99A545",
"E  c #9BA546",
"W  c #ADBB44",
"Q  c #ADBC45",
"!  c #A5B149",
"~  c #A6B148",
"^  c #AAB84B",
"/  c #AFBE4D",
"(  c #B0BE4D",
")  c #829263",
"_  c #839364",
"`  c #839365",
"'  c #849465",
"]  c #849466",
"[  c #909E71",
"{  c #95A378",
"}  c #9AA779",
"|  c #9DAA7C",
" . c #B4C247",
".. c #B5C445",
"X. c #B9C847",
"o. c #B6C449",
"O. c #BAC948",
"+. c #BBCA4B",
"@. c #BDCB4B",
"#. c #BFD04D",
"$. c #C0CF4B",
"%. c #C0CF4D",
"&. c #C7D847",
"*. c #C7D947",
"=. c #CADC49",
"-. c #CBDC4B",
";. c #CCDD4B",
":. c #C3D452",
">. c #C4D551",
",. c #C4D552",
"<. c #C4D553",
"1. c #C5D656",
"2. c #C5D657",
"3. c #C7D853",
"4. c #C8D953",
"5. c #C8DA54",
"6. c #C9DB54",
"7. c #CADC54",
"8. c #CBDC54",
"9. c #CBDD54",
"0. c #C7D658",
"q. c #C6D758",
"w. c #C6D759",
"e. c #C8D75C",
"r. c #C8D75D",
"t. c #CFE04E",
"y. c #CFE156",
"u. c #CFE357",
"i. c #D1E353",
"p. c #D1E354",
"a. c #D1E355",
"s. c #D0E156",
"d. c #D0E455",
"f. c #D2E454",
"g. c #D2E456",
"h. c #D5E957",
"j. c #D7EB58",
"k. c #D8EC58",
"l. c #C9D861",
"z. c #C8D962",
"x. c #3B4783",
"c. c #435282",
"v. c #465280",
"b. c #455384",
"n. c #475686",
"m. c #485583",
"M. c #616B99",
"N. c #626C9A",
"B. c #636D9B",
"V. c #646E9B",
"C. c #65709C",
"Z. c #66719D",
"A. c #6A76A3",
"S. c #6D76A0",
"D. c #6E77A1",
"F. c #6A76A4",
"G. c #6B77A4",
"H. c #6F78A2",
"J. c #6F77AA",
"K. c #737CA5",
"L. c #737DA5",
"P. c #7780A8",
"I. c #7781AB",
"U. c #7E85B7",
"Y. c #7F86B7",
"T. c #848ABB",
"R. c #858FB8",
"E. c #8C94BA",
"W. c #8E98BD",
"Q. c #9098BD",
"!. c #B5C08B",
"~. c #B5C08C",
"^. c #A0A5C2",
"/. c #A1A7C3",
"(. c #A0A8C3",
"). c #A2A8C4",
"_. c #A3A9C4",
"`. c #A3A9C5",
"'. c #A4AAC5",
"]. c #A5ABC5",
"[. c #A5ABC6",
"{. c #A6ACC6",
"}. c #A7ADC7",
"|. c #A0A5CC",
" X c #A1A5CD",
".X c #A1A5CE",
"XX c #AAB0C9",
"oX c #ABB1CA",
/* pixels */
",.,.,.,.,.,.,.,.,.,.,.,.,.,.,.,.,.,.,.,.>.<.>.<.>.<.<.>.<.>.<.>.",
",.,.,.,.,.,.,.,.,.,.,.,.,.,.,.,.,.,.,.,.<.>.<.>.<.>.>.>.>.<.>.<.",
",.,.,.,.,.,.,.,.,.,.,.,.,.,.,.,.,.,.,.,.>.<.<.>.>.<.>.:.<.>.<.>.",
",.,.,.z.z.r.r.r.r.r.r.r.r.r.r.r.r.r.r.r.r.r.r.r.r.r.r.z.z.<.>.<.",
",.,.,.0.0.1.1.1.1.1.1.1.1.1.1.1.1.1.1.1.1.0.0.2.2.2.2.0.0.>.<.>.",
",.,.,.1.,.,.,.,.,.,.,.,.,.,.,.,.,.,.,.,.,.,.>.>.>.>.>.<.0.>.>.<.",
",.,.,.r.1.,.,.,.,.,.,.,.,.,.,.,.,.,.,.,.,.>.>.>.<.>.>.2.r.>.<.>.",
",.,.,.r.1.,.,.,.,.:.6.i.=.&.*.*.&.*.-.i.6.:.>.>.>.<.>.2.r.<.>.<.",
",.,.,.r.2.>.>.<.>.f.Q L | !.!.!.~.~.} 4  .a.:.>.<.>.>.2.r.>.<.>.",
",.,.,.r.2.>.<.>.u...@ j T. X X X X XY.f # O.a.>.>.<.>.2.r.<.>.<.",
",.,.,.r.2.>.>.6.Q @ k W.}._._._.`.'.}.E.g # X.k.6.>.>.2.r.>.<.>.",
",.,.,.r.0.>.>.f.P j W.}._._._._.`.`.`.}.E.h - R ^ 5.>.2.r.<.>.<.",
",.,.,.r.1.,.<.-.{ Y.oX'.'._._._._._._._.XXR.i   ; a.>.2.r.>.<.>.",
",.,.,.r.1.,.>.-.[ J.'.'._._._._._._._.{.(.I.u X 3 u.>.2.r.<.>.<.",
",.,.,.r.1.>.>.t.` x.L.'.'.'._._._.`.'._.L.b.q + 2 a.>.2.r.>.<.>.",
",.,.,.r.0.>.>.t.` z v.I./.'.'.{.{.'./.K.U C r + 2 a.>.2.r.<.>.<.",
",.,.1.e.1.,.,.;.' x M T P././././._.L.U n Z r + 2 a.>.<.r.<.>.<.",
",.,.,.e.1.,.,.i.' v M n m.D.G.G.H.Z.T M V J r + 3 a.>.0.r.<.<.>.",
",.,.,.e.0.,.,.;.' v M M I N.N.N.V.M.I M V D w + 3 f.>.1.r.<.>.<.",
",.,.,.e.1.,.,.i.K 7 H M Y C.Z.C.Z.V.Y M F 9 ; ! / 3.>.1.r.>.<.>.",
",.,.,.r.1.,.,.6.o.% 0 Z Y Z.Z.Z.Z.V.H Z 9 = @.j.6.<.>.2.r.<.>.<.",
",.,.,.r.1.,.,.:.u.@.% 6 n.G.A.A.G.A.c.6 = #.u.:.>.>.>.2.r.>.<.>.",
",.,.,.r.1.,.,.,.:.a.+.& y d d d d d r ; @.u.>.>.<.>.>.2.r.<.>.<.",
",.,.,.r.1.,.,.,.,.1.k.R X X X X   X + ! j.>.>.<.>.<.>.2.r.>.<.>.",
",.,.,.e.0.>.>.>.<.>.6.^ ; 2 2 2 2 3 3 / 6.>.<.>.<.>.>.0.r.>.<.>.",
",.,.,.e.1.>.<.>.>.>.<.5.a.a.a.u.a.a.u.5.<.<.>.<.>.<.<.<.r.>.>.<.",
",.,.,.1.>.>.>.>.>.>.>.>.>.>.>.>.>.>.>.>.>.>.>.>.>.>.>.<.2.>.<.>.",
",.,.,.0.0.2.2.0.2.2.2.0.0.<.0.2.1.1.2.2.2.2.2.2.2.2.2.0.w.<.>.<.",
"<.>.<.z.z.r.r.r.r.r.r.r.r.r.r.r.r.r.r.r.r.r.r.r.r.r.r.z.z.>.<.>.",
">.<.>.>.>.>.<.>.<.>.>.<.<.>.<.>.>.>.<.>.>.<.<.>.>.>.>.<.>.<.>.<.",
"<.>.>.<.>.<.>.<.>.<.>.<.>.<.>.<.>.<.>.<.<.>.<.>.<.>.<.>.<.>.<.>.",
">.<.<.>.<.>.<.>.<.>.<.>.<.>.<.>.<.>.<.>.>.<.>.<.>.<.>.<.>.<.>.<."
};
