/* XPM */
static char *_fb6a686a85244b795ed9684bfe6ee2bkh7bjWsTcXjqhmKv[] = {
/* columns rows colors chars-per-pixel */
"30 30 200 2 ",
"   c #4E4117",
".  c #645420",
"X  c #635732",
"o  c #766329",
"O  c #76683A",
"+  c #726846",
"@  c #897233",
"#  c #867542",
"$  c #84774D",
"%  c #9D8543",
"&  c #97834B",
"*  c #9F9A43",
"=  c #928355",
"-  c #A18F5D",
";  c #A99359",
":  c #AFB34D",
">  c #C8D45D",
",  c #448CAF",
"<  c #4688B1",
"1  c #478AB2",
"2  c #468EB1",
"3  c #498DBC",
"4  c #4C92BE",
"5  c #4999BA",
"6  c #4999BB",
"7  c #5A93B8",
"8  c #6598B6",
"9  c #659FB4",
"0  c #619BBD",
"q  c #6B9EB8",
"w  c #699DBF",
"e  c #69A2BF",
"r  c #4F94C8",
"t  c #5298C1",
"y  c #5399C1",
"u  c #539FC1",
"i  c #579FC3",
"p  c #5E9AC4",
"a  c #539AD1",
"s  c #549BD1",
"d  c #559CD1",
"f  c #579DD7",
"g  c #589ED8",
"h  c #589FD8",
"j  c #5A9FDB",
"k  c #4FA1C6",
"l  c #58A0CD",
"z  c #59A5CC",
"x  c #5DA5CF",
"c  c #57AACB",
"v  c #5BA8CD",
"b  c #59ABCC",
"n  c #5EA5D6",
"m  c #5EA6D6",
"M  c #5FA6D6",
"N  c #5FA6D7",
"B  c #55AAD0",
"V  c #57ACD5",
"C  c #5AAFD7",
"Z  c #5BA1D9",
"A  c #5AA0DB",
"S  c #5BA0DB",
"D  c #5AA7DA",
"F  c #5BA0DC",
"G  c #5DA3DD",
"H  c #5EA4DD",
"J  c #5EA5DD",
"K  c #5AA8DA",
"L  c #5BA8DA",
"P  c #5BA8DB",
"I  c #5AAFD9",
"U  c #5DABDC",
"Y  c #5AB0D9",
"T  c #5BB0D9",
"R  c #5DB3DB",
"E  c #66ADC7",
"W  c #64A7CE",
"Q  c #6EA9C9",
"!  c #75B5CC",
"~  c #62ABD2",
"^  c #60A7DF",
"/  c #63ACD9",
"(  c #63AADD",
")  c #61A8DF",
"_  c #65ACDE",
"`  c #66ADDE",
"'  c #6DAADF",
"]  c #63B6D2",
"[  c #61B6D6",
"{  c #65B0DA",
"}  c #63B1DF",
"|  c #64B9D8",
" . c #66BBDF",
".. c #6DB8DD",
"X. c #68BDDE",
"o. c #69BEDF",
"O. c #7AB3D7",
"+. c #71B0DB",
"@. c #79B7DE",
"#. c #70BBDE",
"$. c #63ABE0",
"%. c #64ACE1",
"&. c #66ACE1",
"*. c #66ADE1",
"=. c #66AEE1",
"-. c #67AEE2",
";. c #67AFE2",
":. c #64B3E0",
">. c #66B3E0",
",. c #67B1E3",
"<. c #66B4E0",
"1. c #66B4E1",
"2. c #66B5E1",
"3. c #68B0E2",
"4. c #69B0E3",
"5. c #69B1E3",
"6. c #68B7E2",
"7. c #6AB2E4",
"8. c #6AB4E4",
"9. c #6BB5E5",
"0. c #6CB7E5",
"q. c #67BBE0",
"w. c #67BCE0",
"e. c #69B9E3",
"r. c #6AB9E3",
"t. c #68BDE0",
"y. c #69BDE1",
"u. c #69BFE3",
"i. c #6EBEE5",
"p. c #76B6E5",
"a. c #7CB3E2",
"s. c #7DB4E3",
"d. c #78B7E5",
"f. c #7FB7E4",
"g. c #74B8E2",
"h. c #79B8E4",
"j. c #73BEE9",
"k. c #6CC1E4",
"l. c #79C4E3",
"z. c #7CC7E5",
"x. c #7FCBE7",
"c. c #87ABC0",
"v. c #87ACC0",
"b. c #8BB0C2",
"n. c #8BB4C1",
"m. c #8BB0C7",
"M. c #8BB6C7",
"N. c #8FB5CA",
"B. c #8EB5CF",
"V. c #8EB9CF",
"C. c #93BED1",
"Z. c #92BED6",
"A. c #95BFDE",
"S. c #92C2D6",
"D. c #95C3DD",
"F. c #87CAE7",
"G. c #88CAE7",
"H. c #82C3EB",
"J. c #87C1E9",
"K. c #88C1E9",
"L. c #89C3EA",
"P. c #88C7E9",
"I. c #8CC6EB",
"U. c #98C2E3",
"Y. c #98C3E3",
"T. c #9BCAE6",
"R. c #9EC9E6",
"E. c #9CC5E9",
"W. c #9DC6EA",
"Q. c #9EC8EA",
"!. c #9EC8EB",
"~. c #9EC9EB",
"^. c #9CCFE8",
"/. c #9DD0E9",
"(. c #9DD1E9",
"). c #A3CEEB",
"_. c #A0CAEC",
"`. c #A0CBEC",
"'. c #A1CCEC",
"]. c #A2CDED",
"[. c #A3CDED",
"{. c #A3CEED",
"}. c #A4CEED",
"|. c #A4CEEE",
" X c #A4CFEE",
".X c #A0D3EA",
"XX c #A0D3EB",
"oX c #A3D2EC",
"OX c #A3D3ED",
"+X c #A4D2EC",
"@X c #A4D0EE",
"#X c #A6D2EF",
"$X c #A3D6EC",
"%X c #A4D7EC",
"&X c #A7D6EE",
"*X c #A6D6EF",
"=X c #A5D8ED",
"-X c #A6D9EE",
";X c #A8D4F0",
":X c #AAD7F1",
/* pixels */
"> > > > > > > > > > > > : : : : : : > > > > > > > > > > > > ",
"> > > > > > > > > : * . @ @ o . o @ * : : > > > > > > > > > ",
"> > > > > > : * % @ o o @ @ o . o @ % % @ * : > > > > > > > ",
"> > > > > : o % @ @ o o @ % @ . o @ % @ @ . o * : > > > > > ",
"> > > > : . o @ o @ . o @ % @ . o @ % @ o . o o @ : > > > > ",
"> > > :   . o @ o o o o % % @ . . o % @ o . . @ @ o : > > > ",
"> > : .     o o o o o o @ % @ . . o @ @ . . . @ o . * > > > ",
"> > * . .   . @ o o . o & ; # O O o @ o .   . o . o o : > > ",
"> : @ @ . . . @ @ # $ v.b.n.b.c.c.c.- # .   . . o @ o * > > ",
"> * % % o .   @ & m.N.N.M.9 8 q N.N.N.N.+ X . o @ % @ . : > ",
"> @ @ % % o . # V.C.V.e 7 , 2 1 < 0 w B.B.B.# @ % % @ o * > ",
": .   . o @ O Z.Z.! E 5 5 4 t u u 4 r p Q S.Z.; @ @ o . @ > ",
": o .     . = A.O.r r l b n ~ ] c z z u k W D.= . . o % % : ",
": o o o . O R.R.+.n n n N [ | { / s s ~ d B Y.Y.# @ @ % % : ",
": o @ @ o = T.@.( f f V V h C Z _ j h _ X.X.h.'.= @ @ @ @ : ",
": o @ % ; Q.W.Z  .Y I j j j C Z j 1.%.$.4.r.<.'.'.o @ @ o : ",
": o o @ ; ~.s.F w.%.%.&.j j I  . .j 5.%.0.r.k.G.:X. . o . : ",
": . . . # (.#.t.%.j F j %.t.1.I D D &.%.4.k.r.P.=X. . . . : ",
"> . . . O #XK.t.w.Y I j t.D j j j I X.r.i.%.p.'.'.  . . o : ",
"> .     . XXXXg.J -.%.q.j j j j j %.%.t.t.%.J.~.$ . o o % > ",
"> * .     + #XJ.$.P j ,.w.t.q.Z %.1.N j j l.*X+XO . @ % * > ",
"> : o o . O @X*XF.4.-.4.$.F P <.I I I I ..^.W.# o @ % % : > ",
"> > * @ o o # *X*XG.z.1.<.:.U Y 1.%.d.a.^.[.= o @ @ @ % > > ",
"> > : o @ o o # (.(.~.H.j.:.R L ' a.[.[.XX$ o o o o o : > > ",
"> > > : o o o . O W.W.'.I.K.=X$X*X).}.#XX     . . . : > > > ",
"> > > > : .       O = Q.=X=XW.W.^.*X= # . .     . : > > > > ",
"> > > > > : *   . o o .   # # # X . o o . . . * : > > > > > ",
"> > > > > > > : * o o     o o o     . . . * : > > > > > > > ",
"> > > > > > > > > > : *   . o o .   * : > > > > > > > > > > ",
"> > > > > > > > > > > > > : : : : > > > > > > > > > > > > > "
};
