/* XPM */
static char *_204b49409ce40dbf09a64885555a6e2rhqvUSIyxBjpN4yp[] = {
/* columns rows colors chars-per-pixel */
"24 24 13 1 ",
"  c #213038",
". c #C8D45D",
"X c #C8D45E",
"o c #CAD664",
"O c #CBD767",
"+ c #CCD768",
"@ c #CFDA72",
"# c #437DA0",
"$ c #9A2890",
"% c #4D92BC",
"& c #D8B78F",
"* c #FFD7A8",
"= c white",
/* pixels */
"@++++++++++++++++++++++@",
"........................",
"O......................O",
"+......................+",
"+.....           ......+",
"+....  ### %%%%%% .....+",
"+... $ #= =#%%%%%% ....+",
"+... $ #= =#% %%%  ....+",
"+...   #= =#%%%%%% ....+",
"+.... $ ####%%%%%% ....+",
"+.... $ ####%%%%%% ....+",
"+....   #####%     ....+",
"+......  ##%%%% .......+",
"+....... ##%%%% .......+",
"+....... #&**** .......+",
"+.....  %#&**** .......+",
"+..... %##&**** .......+",
"+.....  ###%&&% .......+",
"+....... #%%%%% .......+",
"+....... #%  #% .......+",
"+.......   .   ........+",
"O......................o",
"........................",
"@O+++++++++++++++++++++@"
};
